Moderustic-Medium.ufo
<glyph name="ampersand" format="2">
  <advance width="664"/>
  <unicode hex="0026"/>
  <outline>
    <contour>
      <point x="280" y="419" type="line"/>
      <point x="227.344" y="459"/>
      <point x="203.5" y="504"/>
      <point x="203.5" y="543" type="curve" smooth="yes"/>
      <point x="203.5" y="590"/>
      <point x="237.403" y="620"/>
      <point x="291.249" y="620" type="curve" smooth="yes"/>
      <point x="344.097" y="620"/>
      <point x="373" y="590"/>
      <point x="373" y="548" type="curve" smooth="yes"/>
      <point x="373" y="481"/>
      <point x="292" y="449"/>
      <point x="226" y="415" type="curve"/>
    </contour>
    <contour>
      <point x="311" y="365" type="line"/>
      <point x="442" y="425"/>
      <point x="490" y="474"/>
      <point x="490" y="555" type="curve" smooth="yes"/>
      <point x="490" y="656"/>
      <point x="413.906" y="720"/>
      <point x="291.754" y="720" type="curve" smooth="yes"/>
      <point x="170.604" y="720"/>
      <point x="86.5" y="657"/>
      <point x="86.5" y="557" type="curve" smooth="yes"/>
      <point x="86.5" y="500"/>
      <point x="114.657" y="429"/>
      <point x="176" y="377" type="curve"/>
      <point x="90" y="343"/>
      <point x="37" y="274"/>
      <point x="37" y="183" type="curve" smooth="yes"/>
      <point x="37" y="59"/>
      <point x="134" y="-20"/>
      <point x="280" y="-20" type="curve" smooth="yes"/>
      <point x="425" y="-20"/>
      <point x="543" y="58"/>
      <point x="642" y="206" type="curve"/>
      <point x="569" y="279" type="line"/>
      <point x="487" y="157"/>
      <point x="383" y="80"/>
      <point x="285" y="80" type="curve" smooth="yes"/>
      <point x="210" y="80"/>
      <point x="157" y="125"/>
      <point x="157" y="205" type="curve" smooth="yes"/>
      <point x="157" y="253"/>
      <point x="176" y="301"/>
      <point x="221" y="325" type="curve"/>
      <point x="514" y="0" type="line"/>
      <point x="636" y="0" type="line"/>
    </contour>
  </outline>
</glyph>
<glyph name="parenleft" format="2">
  <advance width="391"/>
  <unicode hex="0028"/>
  <outline>
    <contour>
      <point x="365" y="-215" type="curve"/>
      <point x="365" y="-172" type="line"/>
      <point x="256" y="-142"/>
      <point x="180" y="49"/>
      <point x="180" y="293" type="curve" smooth="yes"/>
      <point x="180" y="529"/>
      <point x="254" y="704"/>
      <point x="365" y="734" type="curve"/>
      <point x="365" y="777" type="line"/>
      <point x="176" y="741"/>
      <point x="60" y="564"/>
      <point x="60" y="310" type="curve" smooth="yes"/>
      <point x="60" y="26"/>
      <point x="188" y="-194"/>
    </contour>
  </outline>
</glyph>
<glyph name="parenright" format="2">
  <advance width="384"/>
  <unicode hex="0029"/>
  <outline>
    <contour>
      <point x="25" y="754" type="line"/>
      <point x="122" y="720"/>
      <point x="211" y="529"/>
      <point x="211" y="290" type="curve" smooth="yes"/>
      <point x="211" y="49"/>
      <point x="121" y="-157"/>
      <point x="25" y="-192" type="curve"/>
      <point x="25" y="-215" type="line"/>
      <point x="214" y="-177"/>
      <point x="331" y="17"/>
      <point x="331" y="291" type="curve" smooth="yes"/>
      <point x="331" y="560"/>
      <point x="218" y="740"/>
      <point x="25" y="777" type="curve"/>
    </contour>
  </outline>
</glyph>
<glyph name="period" format="2">
  <advance width="262"/>
  <unicode hex="002E"/>
  <outline>
    <contour>
      <point x="63" y="49" type="curve" smooth="yes"/>
      <point x="63" y="11"/>
      <point x="92" y="-20"/>
      <point x="131" y="-20" type="curve" smooth="yes"/>
      <point x="169" y="-20"/>
      <point x="199" y="11"/>
      <point x="199" y="49" type="curve" smooth="yes"/>
      <point x="199" y="86"/>
      <point x="169" y="115"/>
      <point x="131" y="115" type="curve" smooth="yes"/>
      <point x="92" y="115"/>
      <point x="63" y="86"/>
    </contour>
  </outline>
</glyph>
<glyph name="question" format="2">
  <advance width="551"/>
  <unicode hex="003F"/>
  <outline>
    <contour>
      <point x="88" y="573" type="line"/>
      <point x="142" y="636"/>
      <point x="201" y="667"/>
      <point x="269" y="667" type="curve" smooth="yes"/>
      <point x="350" y="667"/>
      <point x="401" y="631.226"/>
      <point x="401" y="556.323" type="curve" smooth="yes"/>
      <point x="401" y="476.218"/>
      <point x="342" y="414.28"/>
      <point x="181" y="345" type="curve"/>
      <point x="181" y="250" type="line"/>
      <point x="301" y="250" type="line"/>
      <point x="301" y="332" type="line"/>
      <point x="405" y="364"/>
      <point x="521" y="452"/>
      <point x="521" y="577" type="curve" smooth="yes"/>
      <point x="521" y="690"/>
      <point x="425" y="767"/>
      <point x="282" y="767" type="curve" smooth="yes"/>
      <point x="173" y="767"/>
      <point x="77" y="722"/>
      <point x="15" y="646" type="curve"/>
    </contour>
    <contour>
      <point x="178.944" y="43.9835" type="curve" smooth="yes"/>
      <point x="178.944" y="8.74622"/>
      <point x="205.835" y="-20"/>
      <point x="242" y="-20" type="curve" smooth="yes"/>
      <point x="277.237" y="-20"/>
      <point x="305.056" y="8.74622"/>
      <point x="305.056" y="43.9835" type="curve" smooth="yes"/>
      <point x="305.056" y="78.2935"/>
      <point x="277.237" y="105.185"/>
      <point x="242" y="104" type="curve" smooth="yes"/>
      <point x="205.835" y="105.185"/>
      <point x="178.944" y="78.2935"/>
    </contour>
  </outline>
</glyph>
<glyph name="E" format="2">
  <advance width="550"/>
  <unicode hex="0045"/>
  <anchor x="275" y="719" name="top"/>
  <anchor x="275" y="-20" name="bottom"/>
  <anchor x="489" y="-2" name="ogonek"/>
  <anchor x="-28" y="500" name="topgr"/>
  <outline>
    <contour>
      <point x="495" y="0" type="line" name="ab01"/>
      <point x="495" y="100" type="line" name="sv01"/>
      <point x="194" y="100" type="line"/>
      <point x="194" y="315" type="line" name="dv01"/>
      <point x="455" y="315" type="line"/>
      <point x="455" y="415" type="line"/>
      <point x="194" y="415" type="line" name="dv02"/>
      <point x="194" y="600" type="line" name="sv02"/>
      <point x="480" y="600" type="line"/>
      <point x="480" y="700" type="line" name="at01"/>
      <point x="74" y="700" type="line"/>
      <point x="74" y="0" type="line"/>
    </contour>
  </outline>
</glyph>
<glyph name="X" format="2">
  <advance width="648"/>
  <unicode hex="0058"/>
  <anchor x="324" y="719" name="top"/>
  <anchor x="324" y="-20" name="bottom"/>
  <outline>
    <contour>
      <point x="25" y="0" type="line"/>
      <point x="167" y="0" type="line"/>
      <point x="325" y="285" type="line"/>
      <point x="483" y="0" type="line"/>
      <point x="624" y="0" type="line"/>
      <point x="411" y="354" type="line"/>
      <point x="619" y="700" type="line"/>
      <point x="480" y="700" type="line"/>
      <point x="325" y="420" type="line"/>
      <point x="170" y="700" type="line"/>
      <point x="30" y="700" type="line"/>
      <point x="238" y="354" type="line"/>
    </contour>
  </outline>
</glyph>
<glyph name="p" format="2">
  <advance width="635"/>
  <unicode hex="0070"/>
  <anchor x="361" y="-20" name="bottom"/>
  <anchor x="352" y="520" name="top"/>
  <outline>
    <contour>
      <point x="203" y="500" type="line" name="av02"/>
      <point x="83" y="500" type="line"/>
      <point x="83" y="-200" type="line" name="av01"/>
      <point x="203" y="-200" type="line"/>
    </contour>
    <contour>
      <point x="181" y="255" type="curve" smooth="yes"/>
      <point x="181" y="88"/>
      <point x="246" y="-20"/>
      <point x="363" y="-20" type="curve" smooth="yes" name="dv01"/>
      <point x="501" y="-20"/>
      <point x="585" y="99"/>
      <point x="585" y="255" type="curve" smooth="yes"/>
      <point x="585" y="411"/>
      <point x="510" y="520"/>
      <point x="369" y="520" type="curve" smooth="yes" name="at01"/>
      <point x="249" y="520"/>
      <point x="181" y="422"/>
    </contour>
    <contour>
      <point x="465" y="255.515" type="curve" smooth="yes"/>
      <point x="465" y="142.201"/>
      <point x="416" y="70"/>
      <point x="338" y="70" type="curve" smooth="yes" name="dv02"/>
      <point x="258" y="70"/>
      <point x="203" y="151.226"/>
      <point x="203" y="256.518" type="curve" smooth="yes"/>
      <point x="203" y="357.799"/>
      <point x="260" y="430"/>
      <point x="339" y="430" type="curve" smooth="yes" name="sv01"/>
      <point x="419" y="430"/>
      <point x="465" y="366.825"/>
    </contour>
  </outline>
</glyph>
<glyph name="t" format="2">
  <advance width="365"/>
  <unicode hex="0074"/>
  <anchor x="167" y="630" name="top"/>
  <anchor x="220" y="-20" name="bottom"/>
  <anchor x="262" y="700" name="topright"/>
  <outline>
    <contour>
      <point x="15" y="500" type="line" name="dv04"/>
      <point x="15" y="410" type="line" name="dv03"/>
      <point x="325" y="410" type="line"/>
      <point x="325" y="500" type="line"/>
    </contour>
    <contour>
      <point x="225" y="148.141" type="curve" smooth="yes"/>
      <point x="225" y="620" type="line" name="av01"/>
      <point x="105" y="620" type="line"/>
      <point x="105" y="132" type="line" smooth="yes"/>
      <point x="105" y="29"/>
      <point x="146" y="-21"/>
      <point x="228" y="-21" type="curve" smooth="yes" name="dv01"/>
      <point x="263" y="-21"/>
      <point x="298" y="-12"/>
      <point x="348" y="7" type="curve"/>
      <point x="329" y="89" type="line"/>
      <point x="297" y="74.2632"/>
      <point x="282" y="69"/>
      <point x="266" y="69" type="curve" smooth="yes" name="dv02"/>
      <point x="235" y="69"/>
      <point x="225" y="88.0339"/>
    </contour>
  </outline>
</glyph>
<glyph name="v" format="2">
  <advance width="550"/>
  <unicode hex="0076"/>
  <anchor x="275" y="520" name="top"/>
  <anchor x="275" y="-20" name="bottom"/>
  <outline>
    <contour>
      <point x="275" y="148" type="line"/>
      <point x="154" y="500" type="line"/>
      <point x="25" y="500" type="line"/>
      <point x="217" y="0" type="line"/>
      <point x="333" y="0" type="line"/>
      <point x="525" y="500" type="line"/>
      <point x="396" y="500" type="line"/>
    </contour>
  </outline>
</glyph>
<glyph name="threesuperior" format="2">
  <advance width="422"/>
  <unicode hex="00B3"/>
  <outline>
    <contour>
      <point x="39" y="407" type="line"/>
      <point x="83" y="362"/>
      <point x="142" y="337"/>
      <point x="211" y="337" type="curve" smooth="yes"/>
      <point x="304" y="337"/>
      <point x="374" y="382"/>
      <point x="374" y="473" type="curve" smooth="yes"/>
      <point x="374" y="556"/>
      <point x="315" y="590"/>
      <point x="152" y="590" type="curve"/>
      <point x="152" y="543" type="line"/>
      <point x="237" y="543"/>
      <point x="281" y="517"/>
      <point x="281" y="468" type="curve" smooth="yes"/>
      <point x="281" y="432"/>
      <point x="257" y="413"/>
      <point x="210" y="413" type="curve" smooth="yes"/>
      <point x="166" y="413"/>
      <point x="135" y="429"/>
      <point x="98" y="466" type="curve"/>
    </contour>
    <contour>
      <point x="358" y="708" type="curve" smooth="yes"/>
      <point x="358" y="784"/>
      <point x="293" y="835"/>
      <point x="206" y="835" type="curve" smooth="yes"/>
      <point x="146" y="835"/>
      <point x="86" y="811"/>
      <point x="58" y="779" type="curve"/>
      <point x="118" y="719" type="line"/>
      <point x="140" y="744"/>
      <point x="167" y="759"/>
      <point x="201" y="759" type="curve" smooth="yes"/>
      <point x="241" y="759"/>
      <point x="265" y="739"/>
      <point x="265" y="707" type="curve" smooth="yes"/>
      <point x="265" y="671"/>
      <point x="234" y="641"/>
      <point x="152" y="641" type="curve"/>
      <point x="152" y="594" type="line"/>
      <point x="293" y="594"/>
      <point x="358" y="632"/>
    </contour>
  </outline>
</glyph>
<glyph name="Thorn" format="2">
  <advance width="617"/>
  <unicode hex="00DE"/>
  <outline>
    <contour>
      <point x="128" y="458" type="line"/>
      <point x="285" y="458" type="line" smooth="yes"/>
      <point x="407" y="458"/>
      <point x="448" y="434"/>
      <point x="448" y="365" type="curve" smooth="yes"/>
      <point x="448" y="291"/>
      <point x="401" y="263"/>
      <point x="285" y="263" type="curve" smooth="yes"/>
      <point x="140" y="263" type="line"/>
      <point x="140" y="163" type="line"/>
      <point x="303" y="163" type="line" smooth="yes"/>
      <point x="467" y="163"/>
      <point x="568" y="219"/>
      <point x="568" y="363" type="curve" smooth="yes"/>
      <point x="568" y="505"/>
      <point x="469" y="558"/>
      <point x="303" y="558" type="curve" smooth="yes"/>
      <point x="128" y="558" type="line"/>
    </contour>
    <contour>
      <point x="198" y="0" type="line"/>
      <point x="198" y="700" type="line"/>
      <point x="78" y="700" type="line"/>
      <point x="78" y="0" type="line"/>
    </contour>
  </outline>
</glyph>
<glyph name="dotlessj" format="2">
  <advance width="300"/>
  <unicode hex="0237"/>
  <anchor x="162" y="520" name="top"/>
  <anchor x="100" y="-217" name="bottom"/>
  <outline>
    <contour>
      <point x="221" y="500" type="line"/>
      <point x="101" y="500" type="line" name="av01"/>
      <point x="101" y="-39" type="line" smooth="yes"/>
      <point x="101" y="-106"/>
      <point x="93" y="-128"/>
      <point x="48" y="-128" type="curve" smooth="yes" name="dv02"/>
      <point x="31" y="-128"/>
      <point x="-2" y="-123"/>
      <point x="-24" y="-114" type="curve"/>
      <point x="-46" y="-198" type="line"/>
      <point x="-1" y="-212"/>
      <point x="13" y="-221"/>
      <point x="78" y="-221" type="curve" smooth="yes" name="dv01"/>
      <point x="170" y="-221"/>
      <point x="221" y="-174"/>
      <point x="221" y="-68" type="curve" smooth="yes"/>
    </contour>
  </outline>
</glyph>
<glyph name="gravecomb" format="2">
  <advance width="297"/>
  <unicode hex="0300"/>
  <anchor x="148" y="700" name="top"/>
  <anchor x="178" y="500" name="_top"/>
  <outline>
    <contour>
      <point x="219" y="550" type="line"/>
      <point x="148" y="701" type="line"/>
      <point x="35" y="701" type="line"/>
      <point x="136" y="550" type="line"/>
    </contour>
  </outline>
</glyph>
<glyph name="circumflexcomb" format="2">
  <advance width="346"/>
  <unicode hex="0302"/>
  <anchor x="173" y="700" name="top"/>
  <anchor x="173" y="500" name="_top"/>
  <outline>
    <contour>
      <point x="319" y="550" type="line"/>
      <point x="217" y="701" type="line"/>
      <point x="129" y="701" type="line"/>
      <point x="27" y="550" type="line"/>
      <point x="112" y="550" type="line"/>
      <point x="173" y="656" type="line"/>
      <point x="234" y="550" type="line"/>
    </contour>
  </outline>
</glyph>
<glyph name="dotaccentcomb" format="2">
  <advance width="211"/>
  <unicode hex="0307"/>
  <anchor x="105" y="669" name="top"/>
  <anchor x="105" y="500" name="_top"/>
  <outline>
    <contour>
      <point x="107" y="554" type="curve" smooth="yes" name="dv01"/>
      <point x="149" y="554"/>
      <point x="170" y="585"/>
      <point x="170" y="617" type="curve" smooth="yes"/>
      <point x="170" y="649"/>
      <point x="149" y="678"/>
      <point x="107" y="678" type="curve" smooth="yes" name="dv02"/>
      <point x="63" y="678"/>
      <point x="41" y="645"/>
      <point x="41" y="617" type="curve" smooth="yes"/>
      <point x="41" y="589"/>
      <point x="63" y="554"/>
    </contour>
  </outline>
</glyph>
<glyph name="hungarumlautcomb" format="2">
  <advance width="389"/>
  <unicode hex="030B"/>
  <anchor x="214" y="702" name="top"/>
  <anchor x="148" y="500" name="_top"/>
  <outline>
    <contour>
      <point x="262" y="551" type="line"/>
      <point x="362" y="700" type="line"/>
      <point x="266" y="700" type="line"/>
      <point x="206" y="551" type="line"/>
    </contour>
    <contour>
      <point x="33" y="551" type="line"/>
      <point x="89" y="551" type="line"/>
      <point x="189" y="700" type="line"/>
      <point x="93" y="700" type="line"/>
    </contour>
  </outline>
</glyph>
<glyph name="sigma" format="2">
  <advance width="648"/>
  <unicode hex="03C3"/>
  <anchor x="413" y="-3" name="ogonek"/>
  <anchor x="308" y="-20" name="bottom"/>
  <anchor x="308" y="520" name="topgr"/>
  <outline>
    <contour>
      <point x="59" y="244.815" type="curve" smooth="yes"/>
      <point x="59" y="75.3333"/>
      <point x="153" y="-20"/>
      <point x="308" y="-20" type="curve" smooth="yes" name="dv01"/>
      <point x="476" y="-20"/>
      <point x="557" y="75.3333"/>
      <point x="557" y="244.815" type="curve" smooth="yes"/>
      <point x="557" y="404.667"/>
      <point x="475" y="500"/>
      <point x="308" y="500" type="curve" smooth="yes" name="at01"/>
      <point x="152" y="500"/>
      <point x="59" y="404.667"/>
    </contour>
    <contour>
      <point x="437" y="242.905" type="curve" smooth="yes"/>
      <point x="437" y="129.609"/>
      <point x="394" y="66.6667"/>
      <point x="308" y="66.6667" type="curve" smooth="yes" name="dv02"/>
      <point x="225" y="66.6667"/>
      <point x="179" y="126.704"/>
      <point x="179" y="244.842" type="curve" smooth="yes"/>
      <point x="179" y="359.106"/>
      <point x="222" y="413.333"/>
      <point x="308" y="413.333" type="curve" smooth="yes" name="sv01"/>
      <point x="395" y="413.333"/>
      <point x="437" y="355.233"/>
    </contour>
    <contour>
      <point x="301" y="500" type="line"/>
      <point x="350" y="410" type="line"/>
      <point x="611" y="410" type="line"/>
      <point x="611" y="500" type="line"/>
    </contour>
  </outline>
</glyph>
<glyph name="Gecyr" format="2">
  <advance width="544"/>
  <unicode hex="0413"/>
  <anchor x="272" y="719" name="top"/>
  <anchor x="283" y="-20" name="bottom"/>
  <outline>
    <contour>
      <point x="194" y="0" type="line"/>
      <point x="194" y="600" type="line"/>
      <point x="488" y="600" type="line"/>
      <point x="488" y="700" type="line"/>
      <point x="74" y="700" type="line"/>
      <point x="74" y="0" type="line"/>
    </contour>
  </outline>
</glyph>
<glyph name="Zhecyr" format="2">
  <advance width="925"/>
  <unicode hex="0416"/>
  <anchor x="463" y="720" name="top"/>
  <outline>
    <contour>
      <point x="403" y="700" type="line"/>
      <point x="403" y="0" type="line"/>
      <point x="523" y="0" type="line"/>
      <point x="523" y="700" type="line"/>
    </contour>
    <contour>
      <point x="434" y="325" type="line"/>
      <point x="658" y="325" type="line" smooth="yes"/>
      <point x="761" y="325"/>
      <point x="812" y="371"/>
      <point x="824" y="473" type="curve"/>
      <point x="845" y="700" type="line"/>
      <point x="724" y="700" type="line"/>
      <point x="709" y="547" type="line"/>
      <point x="700" y="454"/>
      <point x="681" y="425"/>
      <point x="626" y="425" type="curve" smooth="yes"/>
      <point x="434" y="425" type="line"/>
    </contour>
    <contour>
      <point x="636" y="340" type="line"/>
      <point x="760" y="0" type="line"/>
      <point x="888" y="0" type="line"/>
      <point x="755" y="365" type="line"/>
    </contour>
    <contour>
      <point x="492" y="325" type="line"/>
      <point x="492" y="425" type="line"/>
      <point x="303" y="425" type="line" smooth="yes"/>
      <point x="235" y="425"/>
      <point x="224" y="473"/>
      <point x="217" y="547" type="curve"/>
      <point x="202" y="700" type="line"/>
      <point x="81" y="700" type="line"/>
      <point x="102" y="473" type="line"/>
      <point x="115" y="360"/>
      <point x="176" y="325"/>
      <point x="268" y="325" type="curve" smooth="yes"/>
    </contour>
    <contour>
      <point x="290" y="340" type="line"/>
      <point x="171" y="365" type="line"/>
      <point x="38" y="0" type="line"/>
      <point x="166" y="0" type="line"/>
    </contour>
  </outline>
</glyph>
<glyph name="Icyr" format="2">
  <advance width="752"/>
  <unicode hex="0418"/>
  <anchor x="376" y="719" name="top"/>
  <anchor x="376" y="-20" name="bottom"/>
  <outline>
    <contour>
      <point x="665" y="0" type="line"/>
      <point x="665" y="700" type="line" name="at01"/>
      <point x="555" y="700" type="line"/>
      <point x="207" y="185" type="line" name="iv02"/>
      <point x="207" y="700" type="line" name="at02"/>
      <point x="87" y="700" type="line"/>
      <point x="87" y="0" type="line"/>
      <point x="197" y="0" type="line" name="ab01"/>
      <point x="545" y="515" type="line" name="iv01"/>
      <point x="545" y="0" type="line" name="ab02"/>
    </contour>
  </outline>
</glyph>
<glyph name="Elcyr" format="2">
  <advance width="760"/>
  <unicode hex="041B"/>
  <outline>
    <contour>
      <point x="126" y="-20" type="curve" smooth="yes"/>
      <point x="279" y="-20"/>
      <point x="310" y="85"/>
      <point x="310" y="600" type="curve"/>
      <point x="553" y="600" type="line"/>
      <point x="553" y="0" type="line"/>
      <point x="673" y="0" type="line"/>
      <point x="673" y="700" type="line"/>
      <point x="190" y="700" type="line"/>
      <point x="190" y="213"/>
      <point x="179" y="80"/>
      <point x="119" y="80" type="curve" smooth="yes"/>
      <point x="103" y="80"/>
      <point x="82" y="90"/>
      <point x="50" y="108" type="curve"/>
      <point x="29" y="9" type="line"/>
      <point x="68" y="-14"/>
      <point x="90" y="-20"/>
    </contour>
  </outline>
</glyph>
<glyph name="Shacyr" format="2">
  <advance width="970"/>
  <unicode hex="0428"/>
  <outline>
    <contour>
      <point x="883" y="0" type="line"/>
      <point x="883" y="700" type="line"/>
      <point x="763" y="700" type="line"/>
      <point x="763" y="100" type="line"/>
      <point x="545" y="100" type="line"/>
      <point x="545" y="700" type="line"/>
      <point x="425" y="700" type="line"/>
      <point x="425" y="100" type="line"/>
      <point x="207" y="100" type="line"/>
      <point x="207" y="700" type="line"/>
      <point x="87" y="700" type="line"/>
      <point x="87" y="0" type="line"/>
    </contour>
  </outline>
</glyph>
<glyph name="becyr" format="2">
  <advance width="620"/>
  <unicode hex="0431"/>
  <outline>
    <contour>
      <point x="517" y="649" type="line"/>
      <point x="487.341" y="622"/>
      <point x="423.284" y="597.597"/>
      <point x="333.305" y="588" type="curve" smooth="yes"/>
      <point x="188.88" y="572.596"/>
      <point x="141" y="524"/>
      <point x="141" y="343" type="curve"/>
      <point x="169" y="427.38"/>
      <point x="249.509" y="479"/>
      <point x="350.144" y="479" type="curve" smooth="yes"/>
      <point x="479.533" y="479"/>
      <point x="561" y="394.17"/>
      <point x="561" y="234.49" type="curve" smooth="yes"/>
      <point x="561" y="70.818"/>
      <point x="474.915" y="-20"/>
      <point x="314.353" y="-20" type="curve" smooth="yes"/>
      <point x="142.183" y="-20"/>
      <point x="59" y="84"/>
      <point x="59" y="333" type="curve" smooth="yes"/>
      <point x="59" y="554"/>
      <point x="124.552" y="652.113"/>
      <point x="328.015" y="678" type="curve" smooth="yes"/>
      <point x="383.924" y="685.113"/>
      <point x="463.968" y="702"/>
      <point x="517" y="749" type="curve"/>
    </contour>
    <contour>
      <point x="312.438" y="70" type="curve" smooth="yes"/>
      <point x="396.895" y="70"/>
      <point x="441" y="135"/>
      <point x="441" y="236" type="curve" smooth="yes"/>
      <point x="441" y="335"/>
      <point x="398.772" y="389"/>
      <point x="314.315" y="389" type="curve" smooth="yes"/>
      <point x="229.859" y="389"/>
      <point x="182" y="335"/>
      <point x="182" y="234" type="curve" smooth="yes"/>
      <point x="182" y="135"/>
      <point x="227.982" y="70"/>
    </contour>
  </outline>
</glyph>
<glyph name="gecyr" format="2">
  <advance width="441"/>
  <unicode hex="0433"/>
  <anchor x="241" y="520" name="top"/>
  <anchor x="241" y="-20" name="bottom"/>
  <outline>
    <contour>
      <point x="84" y="0" type="line"/>
      <point x="204" y="0" type="line"/>
      <point x="204" y="410" type="line"/>
      <point x="404" y="410" type="line"/>
      <point x="404" y="500" type="line"/>
      <point x="84" y="500" type="line"/>
    </contour>
  </outline>
</glyph>
<glyph name="decyr" format="2">
  <advance width="780"/>
  <unicode hex="0434"/>
  <anchor x="409" y="-20" name="bottom"/>
  <anchor x="410" y="520" name="top"/>
  <outline>
    <contour>
      <point x="130" y="-140" type="line"/>
      <point x="131" y="-107"/>
      <point x="117" y="0"/>
      <point x="176" y="0" type="curve" smooth="yes"/>
      <point x="596" y="0" type="line" smooth="yes"/>
      <point x="667" y="0"/>
      <point x="648" y="-102"/>
      <point x="648" y="-140" type="curve"/>
      <point x="735" y="-140" type="line"/>
      <point x="735" y="52"/>
      <point x="714" y="89"/>
      <point x="614" y="89" type="curve"/>
      <point x="614" y="500" type="line"/>
      <point x="215" y="500" type="line"/>
      <point x="215" y="325" type="line" smooth="yes"/>
      <point x="215" y="196"/>
      <point x="203" y="122"/>
      <point x="178" y="91" type="curve"/>
      <point x="78" y="91"/>
      <point x="44" y="57"/>
      <point x="44" y="-140" type="curve"/>
    </contour>
    <contour>
      <point x="242" y="90" type="line"/>
      <point x="313" y="110"/>
      <point x="335" y="187"/>
      <point x="335" y="410" type="curve"/>
      <point x="494" y="410" type="line"/>
      <point x="494" y="90" type="line"/>
    </contour>
  </outline>
</glyph>
<glyph name="checyr" format="2">
  <advance width="595"/>
  <unicode hex="0447"/>
  <anchor x="298" y="-20" name="bottom"/>
  <anchor x="298" y="520" name="top"/>
  <outline>
    <contour>
      <point x="395" y="0" type="line"/>
      <point x="515" y="0" type="line"/>
      <point x="515" y="500" type="line"/>
      <point x="395" y="500" type="line"/>
    </contour>
    <contour>
      <point x="76" y="500" type="line"/>
      <point x="76" y="340" type="line" smooth="yes"/>
      <point x="76" y="216.779"/>
      <point x="140.417" y="154"/>
      <point x="242.252" y="154" type="curve" smooth="yes"/>
      <point x="333" y="154"/>
      <point x="414" y="211"/>
      <point x="414" y="318" type="curve"/>
      <point x="395" y="343" type="line"/>
      <point x="395" y="284.463"/>
      <point x="331" y="244"/>
      <point x="273.911" y="244" type="curve" smooth="yes"/>
      <point x="225.443" y="244"/>
      <point x="196" y="273.165"/>
      <point x="196" y="340.416" type="curve" smooth="yes"/>
      <point x="196" y="500" type="line"/>
    </contour>
  </outline>
</glyph>
<glyph name="ljecyr" format="2">
  <advance width="820"/>
  <unicode hex="0459"/>
  <outline>
    <contour>
      <point x="451" y="305" type="line"/>
      <point x="451" y="215" type="line"/>
      <point x="588" y="215" type="line" smooth="yes"/>
      <point x="629" y="215"/>
      <point x="650" y="194.348"/>
      <point x="650" y="155.217" type="curve" smooth="yes"/>
      <point x="650" y="113.913"/>
      <point x="621" y="90"/>
      <point x="573" y="90" type="curve" smooth="yes"/>
      <point x="495" y="90" type="line"/>
      <point x="495" y="159" type="line"/>
      <point x="395" y="83" type="line"/>
      <point x="497" y="0" type="line"/>
      <point x="592" y="0" type="line" smooth="yes"/>
      <point x="702" y="0"/>
      <point x="770" y="61"/>
      <point x="770" y="159.22" type="curve" smooth="yes"/>
      <point x="770" y="253.305"/>
      <point x="708" y="305"/>
      <point x="592" y="305" type="curve" smooth="yes"/>
    </contour>
    <contour>
      <point x="126" y="500" type="line"/>
      <point x="126" y="191"/>
      <point x="120" y="70"/>
      <point x="60" y="70" type="curve" smooth="yes"/>
      <point x="52" y="70"/>
      <point x="44" y="71"/>
      <point x="34" y="73" type="curve"/>
      <point x="15" y="-16" type="line"/>
      <point x="32" y="-18"/>
      <point x="49" y="-20"/>
      <point x="61" y="-20" type="curve" smooth="yes"/>
      <point x="199" y="-20"/>
      <point x="246" y="89"/>
      <point x="246" y="410" type="curve"/>
      <point x="377" y="410" type="line"/>
      <point x="377" y="0" type="line"/>
      <point x="497" y="0" type="line"/>
      <point x="497" y="500" type="line"/>
    </contour>
  </outline>
</glyph>
<glyph name="hryvnia" format="2">
  <advance width="734"/>
  <unicode hex="20B4"/>
  <outline>
    <contour>
      <point x="31" y="272" type="line"/>
      <point x="143.044" y="272" type="line"/>
      <point x="128.231" y="246.387"/>
      <point x="121" y="216.964"/>
      <point x="121" y="183.318" type="curve" smooth="yes"/>
      <point x="121" y="60.1252"/>
      <point x="217" y="-20"/>
      <point x="372" y="-20" type="curve" smooth="yes"/>
      <point x="483" y="-20"/>
      <point x="570" y="21"/>
      <point x="634" y="101" type="curve"/>
      <point x="563" y="172" type="line"/>
      <point x="512" y="113.363"/>
      <point x="454" y="80"/>
      <point x="381" y="80" type="curve" smooth="yes"/>
      <point x="295" y="80"/>
      <point x="238" y="125.07"/>
      <point x="238" y="188.169" type="curve" smooth="yes"/>
      <point x="238" y="228.004"/>
      <point x="261.345" y="253.083"/>
      <point x="313.987" y="272" type="curve"/>
      <point x="703" y="272" type="line"/>
      <point x="703" y="314" type="line"/>
      <point x="31" y="314" type="line"/>
    </contour>
    <contour>
      <point x="31" y="388" type="line"/>
      <point x="703" y="388" type="line"/>
      <point x="703" y="430" type="line"/>
      <point x="610.345" y="430" type="line"/>
      <point x="619.598" y="452.575"/>
      <point x="624" y="477.727"/>
      <point x="624" y="505.665" type="curve" smooth="yes"/>
      <point x="624" y="634.867"/>
      <point x="531" y="720"/>
      <point x="380" y="720" type="curve" smooth="yes"/>
      <point x="275" y="720"/>
      <point x="188" y="679"/>
      <point x="124" y="599" type="curve"/>
      <point x="195" y="528" type="line"/>
      <point x="246" y="586.637"/>
      <point x="304" y="620"/>
      <point x="371" y="620" type="curve" smooth="yes"/>
      <point x="453" y="620"/>
      <point x="504" y="570.923"/>
      <point x="504" y="508.826" type="curve" smooth="yes"/>
      <point x="504" y="474.883"/>
      <point x="488.857" y="449.652"/>
      <point x="459.464" y="430" type="curve"/>
      <point x="31" y="430" type="line"/>
    </contour>
  </outline>
</glyph>
<glyph name="C.ss12" format="2">
  <advance width="669"/>
  <anchor x="377" y="-19" name="bottom"/>
  <anchor x="357" y="719" name="top"/>
  <outline>
    <contour>
      <point x="378" y="78.9326" type="curve" smooth="yes"/>
      <point x="229" y="78.9326"/>
      <point x="173" y="182.328"/>
      <point x="173" y="345.953" type="curve" smooth="yes"/>
      <point x="173" y="513.594"/>
      <point x="223.684" y="619.699"/>
      <point x="372.684" y="619.699" type="curve" smooth="yes"/>
      <point x="454.142" y="619.699"/>
      <point x="531.978" y="587.855"/>
      <point x="607.705" y="528.19" type="curve"/>
      <point x="615.812" y="611.727" type="line"/>
      <point x="580.285" y="665.201"/>
      <point x="483.983" y="720"/>
      <point x="369" y="720" type="curve" smooth="yes"/>
      <point x="169" y="720"/>
      <point x="53" y="572"/>
      <point x="53" y="349" type="curve" smooth="yes"/>
      <point x="53" y="126"/>
      <point x="169" y="-21.0674"/>
      <point x="369" y="-21.0674" type="curve" smooth="yes"/>
      <point x="483.983" y="-21.0674"/>
      <point x="580.285" y="33.7312"/>
      <point x="615.812" y="87.2056" type="curve"/>
      <point x="607.705" y="170.742" type="line"/>
      <point x="531.978" y="110.376"/>
      <point x="459.458" y="78.9326"/>
    </contour>
  </outline>
</glyph>
<glyph name="Ereversedcyr.ss12" format="2">
  <advance width="669"/>
  <anchor x="304" y="719" name="top"/>
  <outline>
    <contour>
      <point x="291" y="78.9326" type="curve" smooth="yes"/>
      <point x="209.542" y="78.9326"/>
      <point x="137.022" y="110.376"/>
      <point x="61.2948" y="170.742" type="curve"/>
      <point x="53.1882" y="87.2056" type="line"/>
      <point x="88.7149" y="33.7312"/>
      <point x="185.017" y="-21.0674"/>
      <point x="300" y="-21.0674" type="curve" smooth="yes"/>
      <point x="500" y="-21.0674"/>
      <point x="616" y="126"/>
      <point x="616" y="349" type="curve" smooth="yes"/>
      <point x="616" y="572"/>
      <point x="500" y="720"/>
      <point x="300" y="720" type="curve" smooth="yes"/>
      <point x="185.017" y="720"/>
      <point x="88.7149" y="665.201"/>
      <point x="53.1882" y="611.727" type="curve"/>
      <point x="61.2948" y="528.19" type="line"/>
      <point x="137.022" y="587.855"/>
      <point x="214.858" y="619.699"/>
      <point x="296.316" y="619.699" type="curve" smooth="yes"/>
      <point x="445.316" y="619.699"/>
      <point x="496" y="513.594"/>
      <point x="496" y="345.953" type="curve" smooth="yes"/>
      <point x="496" y="182.328"/>
      <point x="440" y="78.9326"/>
    </contour>
    <contour>
      <point x="178" y="310" type="line"/>
      <point x="523" y="310" type="line"/>
      <point x="523" y="410" type="line"/>
      <point x="178" y="410" type="line"/>
    </contour>
  </outline>
</glyph>
<glyph name="G.ss09" format="2">
  <advance width="780"/>
  <anchor x="390" y="-19" name="bottom"/>
  <anchor x="390" y="719" name="top"/>
  <outline>
    <contour>
      <point x="632" y="257" type="line" name="dv08"/>
      <point x="611" y="261" type="line" name="dv07"/>
      <point x="325" y="261" type="line" name="dv05"/>
      <point x="325" y="351" type="line" name="dv06"/>
      <point x="727" y="351" type="line" name="iv02"/>
      <point x="727" y="0" type="line" name="dv14"/>
      <point x="696" y="0" type="line" name="dv15"/>
    </contour>
    <contour>
      <point x="392" y="620" type="curve" smooth="yes" name="dv03"/>
      <point x="259" y="620"/>
      <point x="173" y="515.807"/>
      <point x="173" y="349.499" type="curve" smooth="yes" name="dv12"/>
      <point x="173" y="176.178"/>
      <point x="266" y="80"/>
      <point x="387" y="80" type="curve" smooth="yes" name="dv02"/>
      <point x="522" y="80"/>
      <point x="593" y="199.49"/>
      <point x="597" y="324" type="curve" name="iv01"/>
      <point x="639" y="292" type="line" name="dv09"/>
      <point x="644" y="236" type="line" name="dv10"/>
      <point x="618" y="74"/>
      <point x="524" y="-20"/>
      <point x="379" y="-20" type="curve" smooth="yes" name="dv01"/>
      <point x="183.4" y="-20"/>
      <point x="53" y="128.4"/>
      <point x="53" y="351" type="curve" smooth="yes" name="dv11"/>
      <point x="53" y="569"/>
      <point x="181" y="720"/>
      <point x="392" y="720" type="curve" smooth="yes" name="dv04"/>
      <point x="545" y="720"/>
      <point x="662" y="640"/>
      <point x="710" y="485" type="curve"/>
      <point x="590" y="485" type="line"/>
      <point x="561" y="571"/>
      <point x="484" y="620"/>
    </contour>
  </outline>
</glyph>
<glyph name="Germandbls.ss10" format="2">
  <advance width="723"/>
  <outline>
    <contour>
      <point x="674" y="153" type="curve" smooth="yes"/>
      <point x="674" y="321"/>
      <point x="413" y="309"/>
      <point x="413" y="405" type="curve" smooth="yes"/>
      <point x="413" y="435"/>
      <point x="438" y="457"/>
      <point x="468" y="484" type="curve" smooth="yes"/>
      <point x="638" y="635" type="line"/>
      <point x="575" y="688"/>
      <point x="461" y="720"/>
      <point x="347" y="720" type="curve" smooth="yes"/>
      <point x="156" y="720"/>
      <point x="84" y="631"/>
      <point x="84" y="499" type="curve" smooth="yes"/>
      <point x="84" y="0" type="line"/>
      <point x="204" y="0" type="line"/>
      <point x="204" y="494" type="line" smooth="yes"/>
      <point x="204" y="577"/>
      <point x="253" y="619"/>
      <point x="350" y="619" type="curve" smooth="yes"/>
      <point x="399" y="619"/>
      <point x="434" y="608"/>
      <point x="469" y="594" type="curve"/>
      <point x="374" y="515" type="line" smooth="yes"/>
      <point x="307" y="460"/>
      <point x="292" y="430"/>
      <point x="292" y="395" type="curve" smooth="yes"/>
      <point x="292" y="249"/>
      <point x="554" y="267"/>
      <point x="554" y="151" type="curve" smooth="yes"/>
      <point x="554" y="109"/>
      <point x="522" y="80"/>
      <point x="476" y="80" type="curve" smooth="yes"/>
      <point x="414" y="80"/>
      <point x="366" y="133"/>
      <point x="315" y="216" type="curve"/>
      <point x="277" y="87" type="line"/>
      <point x="318" y="27"/>
      <point x="392" y="-20"/>
      <point x="486" y="-20" type="curve" smooth="yes"/>
      <point x="621" y="-20"/>
      <point x="674" y="77"/>
    </contour>
  </outline>
</glyph>
<glyph name="IJ.liga.ss07" format="2">
  <advance width="640"/>
  <outline>
    <contour>
      <point x="103" y="50" type="line" name="ab01"/>
      <point x="223" y="50" type="line"/>
      <point x="223" y="700" type="line" name="at01"/>
      <point x="103" y="700" type="line"/>
    </contour>
    <contour>
      <point x="103" y="-144" type="line"/>
      <point x="485" y="-144"/>
      <point x="566" y="-86"/>
      <point x="566" y="128" type="curve" smooth="yes"/>
      <point x="566" y="700" type="line"/>
      <point x="446" y="700" type="line"/>
      <point x="446" y="124" type="line" smooth="yes"/>
      <point x="446" y="-5"/>
      <point x="395" y="-44"/>
      <point x="103" y="-44" type="curve"/>
    </contour>
  </outline>
</glyph>
<glyph name="Yacyr.ss08" format="2">
  <advance width="645"/>
  <anchor x="322" y="719" name="top"/>
  <anchor x="322" y="-20" name="bottom"/>
  <outline>
    <contour>
      <point x="566" y="0" type="line"/>
      <point x="566" y="700" type="line"/>
      <point x="303.93" y="700" type="line" smooth="yes"/>
      <point x="154.176" y="700"/>
      <point x="58.5" y="611"/>
      <point x="58.5" y="474" type="curve" smooth="yes"/>
      <point x="58.5" y="341"/>
      <point x="154.322" y="244"/>
      <point x="313.323" y="244" type="curve" smooth="yes"/>
      <point x="446" y="244" type="line"/>
      <point x="446" y="0" type="line"/>
    </contour>
    <contour>
      <point x="342.032" y="344" type="line" smooth="yes"/>
      <point x="233.733" y="344"/>
      <point x="178.5" y="383"/>
      <point x="178.5" y="469" type="curve" smooth="yes"/>
      <point x="178.5" y="555"/>
      <point x="233.733" y="600"/>
      <point x="342.032" y="600" type="curve" smooth="yes"/>
      <point x="446" y="600" type="line"/>
      <point x="446" y="344" type="line"/>
    </contour>
    <contour>
      <point x="262" y="305" type="line"/>
      <point x="166" y="279"/>
      <point x="124" y="273"/>
      <point x="99" y="222" type="curve" smooth="yes"/>
      <point x="74" y="171"/>
      <point x="94" y="56"/>
      <point x="74" y="0" type="curve"/>
      <point x="197" y="0" type="line"/>
      <point x="212" y="60"/>
      <point x="195" y="143"/>
      <point x="212" y="183" type="curve" smooth="yes"/>
      <point x="233" y="232"/>
      <point x="285" y="242"/>
      <point x="338" y="244" type="curve"/>
    </contour>
  </outline>
</glyph>
<glyph name="ae.ss13" format="2">
  <advance width="887"/>
  <outline>
    <contour>
      <point x="280" y="520" type="curve" smooth="yes"/>
      <point x="354.03" y="520"/>
      <point x="409.66" y="499.9"/>
      <point x="443.61" y="462.48" type="curve"/>
      <point x="482.98" y="498.46"/>
      <point x="536.45" y="520"/>
      <point x="603.4" y="520" type="curve" smooth="yes"/>
      <point x="760.81" y="520"/>
      <point x="840" y="397"/>
      <point x="840" y="238" type="curve"/>
      <point x="483" y="238" type="line"/>
      <point x="483" y="135.38"/>
      <point x="528.58" y="70"/>
      <point x="601.51" y="70" type="curve" smooth="yes"/>
      <point x="656.21" y="70"/>
      <point x="706.35" y="100"/>
      <point x="710" y="167" type="curve"/>
      <point x="834" y="167" type="line"/>
      <point x="813.97" y="50"/>
      <point x="739.6" y="-20"/>
      <point x="603.26" y="-20" type="curve" smooth="yes"/>
      <point x="517.29" y="-20"/>
      <point x="450.85" y="17.95"/>
      <point x="409.84" y="80.54" type="curve"/>
      <point x="365.439" y="11.4039"/>
      <point x="302.303" y="-20"/>
      <point x="221.529" y="-20" type="curve" smooth="yes"/>
      <point x="108.498" y="-20"/>
      <point x="36" y="41.4943"/>
      <point x="36" y="146" type="curve" smooth="yes"/>
      <point x="36" y="243"/>
      <point x="110" y="312"/>
      <point x="217" y="312" type="curve" smooth="yes"/>
      <point x="285.1" y="312"/>
      <point x="336.5" y="283.76"/>
      <point x="363" y="233.97" type="curve"/>
      <point x="363" y="356.82" type="line" smooth="yes"/>
      <point x="363" y="400.93"/>
      <point x="332.84" y="430"/>
      <point x="279.56" y="430" type="curve" smooth="yes"/>
      <point x="225.27" y="430"/>
      <point x="179.03" y="399"/>
      <point x="172" y="341" type="curve"/>
      <point x="57" y="341" type="line"/>
      <point x="65.27" y="455.16"/>
      <point x="142.79" y="520"/>
    </contour>
    <contour>
      <point x="156" y="150" type="curve" smooth="yes"/>
      <point x="156" y="99"/>
      <point x="196" y="70"/>
      <point x="249" y="70" type="curve" smooth="yes"/>
      <point x="310.2" y="70"/>
      <point x="353.31" y="107.77"/>
      <point x="362.27" y="164.47" type="curve"/>
      <point x="343.91" y="199.79"/>
      <point x="303.39" y="222"/>
      <point x="249" y="222" type="curve" smooth="yes"/>
      <point x="194" y="222"/>
      <point x="156" y="199"/>
    </contour>
    <contour>
      <point x="483" y="310" type="curve"/>
      <point x="714" y="310" type="line"/>
      <point x="714" y="378.85"/>
      <point x="666.52" y="430"/>
      <point x="602.6" y="430" type="curve" smooth="yes"/>
      <point x="535.95" y="430"/>
      <point x="483" y="377.86"/>
    </contour>
  </outline>
</glyph>
<glyph name="c.ss10" format="2">
  <advance width="585"/>
  <anchor x="316" y="520" name="top"/>
  <anchor x="316" y="-20" name="bottom"/>
  <outline>
    <contour>
      <point x="321" y="-20" type="curve" smooth="yes"/>
      <point x="406" y="-20"/>
      <point x="482" y="15"/>
      <point x="526" y="74" type="curve"/>
      <point x="495" y="182" type="line"/>
      <point x="436" y="97"/>
      <point x="394" y="70"/>
      <point x="320" y="70" type="curve" smooth="yes"/>
      <point x="230" y="70"/>
      <point x="179" y="145"/>
      <point x="179" y="256" type="curve" smooth="yes"/>
      <point x="179" y="368"/>
      <point x="230" y="430"/>
      <point x="322" y="430" type="curve" smooth="yes"/>
      <point x="393" y="430"/>
      <point x="436" y="402"/>
      <point x="495" y="318" type="curve"/>
      <point x="526" y="426" type="line"/>
      <point x="482" y="485"/>
      <point x="406" y="520"/>
      <point x="321" y="520" type="curve" smooth="yes"/>
      <point x="166" y="520"/>
      <point x="59" y="412"/>
      <point x="59" y="255" type="curve" smooth="yes"/>
      <point x="59" y="91"/>
      <point x="164" y="-20"/>
    </contour>
  </outline>
</glyph>
<glyph name="cent.ss09" format="2">
  <advance width="611"/>
  <outline>
    <component base="c.ss09" yOffset="101"/>
    <contour>
      <point x="341" y="610" type="line"/>
      <point x="341" y="730" type="line"/>
      <point x="291" y="730" type="line"/>
      <point x="291" y="610" type="line"/>
    </contour>
    <contour>
      <point x="292" y="89" type="line"/>
      <point x="292" y="-31" type="line"/>
      <point x="340" y="-31" type="line"/>
      <point x="340" y="90" type="line"/>
    </contour>
  </outline>
</glyph>
<glyph name="cent.ss12" format="2">
  <advance width="570"/>
  <outline>
    <component base="c.ss12" yOffset="101"/>
    <contour>
      <point x="335" y="610" type="line"/>
      <point x="335" y="730" type="line"/>
      <point x="285" y="730" type="line"/>
      <point x="285" y="610" type="line"/>
    </contour>
    <contour>
      <point x="286" y="89" type="line"/>
      <point x="286" y="-31" type="line"/>
      <point x="334" y="-31" type="line"/>
      <point x="334" y="90" type="line"/>
    </contour>
  </outline>
</glyph>
<glyph name="decyr.ss08" format="2">
  <advance width="781"/>
  <outline>
    <contour>
      <point x="508" y="86" type="line"/>
      <point x="633" y="86" type="line"/>
      <point x="464" y="500" type="line"/>
      <point x="317" y="500" type="line"/>
      <point x="148" y="86" type="line"/>
      <point x="274" y="86" type="line"/>
      <point x="391" y="406" type="line"/>
    </contour>
    <contour>
      <point x="45" y="-140" type="curve"/>
      <point x="142" y="-140" type="line"/>
      <point x="143" y="-107"/>
      <point x="128" y="0"/>
      <point x="188" y="0" type="curve" smooth="yes"/>
      <point x="588" y="0" type="line" smooth="yes"/>
      <point x="655" y="0"/>
      <point x="640" y="-102"/>
      <point x="640" y="-140" type="curve"/>
      <point x="736" y="-140" type="line"/>
      <point x="736" y="34"/>
      <point x="715" y="91"/>
      <point x="617" y="91" type="curve" smooth="yes"/>
      <point x="164" y="91" type="line" smooth="yes"/>
      <point x="66" y="91"/>
      <point x="45" y="34"/>
    </contour>
  </outline>
</glyph>
<glyph name="f.ss11" format="2">
  <advance width="423"/>
  <anchor x="250" y="750" name="top"/>
  <anchor x="183" y="-20" name="bottom"/>
  <outline>
    <contour>
      <point x="129" y="410" type="line"/>
      <point x="129" y="0" type="line"/>
      <point x="249" y="0" type="line"/>
      <point x="249" y="410" type="line"/>
      <point x="370" y="410" type="line"/>
      <point x="370" y="500" type="line"/>
      <point x="249" y="500" type="line"/>
      <point x="249" y="559.457" type="line" smooth="yes"/>
      <point x="249" y="604.806"/>
      <point x="262" y="630"/>
      <point x="300" y="630" type="curve" smooth="yes"/>
      <point x="318" y="630"/>
      <point x="341" y="625.636"/>
      <point x="386" y="618" type="curve"/>
      <point x="386" y="707" type="line"/>
      <point x="341" y="716"/>
      <point x="320" y="720"/>
      <point x="277" y="720" type="curve" smooth="yes"/>
      <point x="182" y="720"/>
      <point x="129" y="669"/>
      <point x="129" y="577" type="curve" smooth="yes"/>
      <point x="129" y="500" type="line"/>
      <point x="32" y="500" type="line"/>
      <point x="32" y="410" type="line"/>
    </contour>
  </outline>
</glyph>
<glyph name="germandbls.ss12" format="2">
  <advance width="730"/>
  <outline>
    <contour>
      <point x="475" y="-20" type="curve" smooth="yes"/>
      <point x="607" y="-20"/>
      <point x="672" y="48.9104"/>
      <point x="672" y="137.795" type="curve" smooth="yes"/>
      <point x="672" y="298.586"/>
      <point x="461" y="283.605"/>
      <point x="461" y="380.479" type="curve" smooth="yes"/>
      <point x="461" y="445.395"/>
      <point x="558" y="449.39"/>
      <point x="558" y="569.234" type="curve" smooth="yes"/>
      <point x="558" y="686.082"/>
      <point x="465" y="749"/>
      <point x="330" y="749" type="curve" smooth="yes"/>
      <point x="189" y="749"/>
      <point x="84" y="680.092"/>
      <point x="84" y="534.287" type="curve" smooth="yes"/>
      <point x="84" y="0" type="line"/>
      <point x="204" y="0" type="line"/>
      <point x="204" y="518" type="line" smooth="yes"/>
      <point x="204" y="602"/>
      <point x="245" y="659"/>
      <point x="331" y="659" type="curve" smooth="yes"/>
      <point x="395" y="659"/>
      <point x="438" y="627"/>
      <point x="438" y="567" type="curve" smooth="yes"/>
      <point x="438" y="478"/>
      <point x="344" y="452"/>
      <point x="344" y="355" type="curve" smooth="yes"/>
      <point x="344" y="211"/>
      <point x="552" y="227"/>
      <point x="552" y="132" type="curve" smooth="yes"/>
      <point x="552" y="98"/>
      <point x="525" y="70"/>
      <point x="465" y="70" type="curve" smooth="yes"/>
      <point x="403" y="70"/>
      <point x="333" y="100"/>
      <point x="277" y="154" type="curve"/>
      <point x="270" y="80" type="line"/>
      <point x="323" y="16"/>
      <point x="380" y="-20"/>
    </contour>
  </outline>
</glyph>
<glyph name="hryvnia.ss09" format="2">
  <advance width="727"/>
  <outline>
    <contour>
      <point x="131.31" y="275" type="line"/>
      <point x="118.47" y="249.19"/>
      <point x="111" y="217.2"/>
      <point x="111" y="177" type="curve" smooth="yes"/>
      <point x="111" y="64"/>
      <point x="202" y="-21"/>
      <point x="354" y="-21" type="curve" smooth="yes"/>
      <point x="507" y="-21"/>
      <point x="590" y="66"/>
      <point x="614" y="197" type="curve"/>
      <point x="494" y="197" type="line"/>
      <point x="479" y="113"/>
      <point x="438" y="80"/>
      <point x="358" y="80" type="curve" smooth="yes"/>
      <point x="272" y="80"/>
      <point x="232" y="118"/>
      <point x="232" y="184" type="curve" smooth="yes"/>
      <point x="232" y="230.86"/>
      <point x="257.2" y="256.98"/>
      <point x="294.51" y="275" type="curve"/>
      <point x="696" y="275" type="line"/>
      <point x="696" y="309" type="line"/>
      <point x="31" y="309" type="line"/>
      <point x="31" y="275" type="line"/>
    </contour>
    <contour>
      <point x="31" y="407" type="line"/>
      <point x="696" y="407" type="line"/>
      <point x="696" y="441" type="line"/>
      <point x="591.04" y="441" type="line"/>
      <point x="599.33" y="463.52"/>
      <point x="604" y="490.19"/>
      <point x="604" y="522" type="curve" smooth="yes"/>
      <point x="604" y="635"/>
      <point x="518" y="720"/>
      <point x="373" y="720" type="curve" smooth="yes"/>
      <point x="226" y="720"/>
      <point x="146" y="633"/>
      <point x="122" y="502" type="curve"/>
      <point x="243" y="502" type="line"/>
      <point x="257" y="586"/>
      <point x="295" y="619"/>
      <point x="369" y="619" type="curve" smooth="yes"/>
      <point x="448" y="619"/>
      <point x="484" y="581"/>
      <point x="484" y="515" type="curve" smooth="yes"/>
      <point x="484" y="481.04"/>
      <point x="470.72" y="457.98"/>
      <point x="449.19" y="441" type="curve"/>
      <point x="31" y="441" type="line"/>
    </contour>
  </outline>
</glyph>
<glyph name="lira.ss10" format="2">
  <advance width="660"/>
  <outline>
    <contour>
      <point x="366" y="720" type="curve" smooth="yes"/>
      <point x="468" y="720"/>
      <point x="563" y="676"/>
      <point x="627" y="593" type="curve"/>
      <point x="588" y="465" type="line"/>
      <point x="527" y="577"/>
      <point x="457" y="619"/>
      <point x="378" y="619" type="curve" smooth="yes"/>
      <point x="276" y="619"/>
      <point x="239" y="549"/>
      <point x="239" y="432" type="curve"/>
      <point x="466" y="432" type="line"/>
      <point x="466" y="382" type="line"/>
      <point x="239" y="382" type="line"/>
      <point x="239" y="285" type="line"/>
      <point x="466" y="285" type="line"/>
      <point x="466" y="235" type="line"/>
      <point x="239" y="235" type="line"/>
      <point x="239" y="153"/>
      <point x="226" y="125"/>
      <point x="152" y="100" type="curve"/>
      <point x="627" y="100" type="line"/>
      <point x="627" y="0" type="line"/>
      <point x="37" y="0" type="line"/>
      <point x="37" y="57" type="line"/>
      <point x="83" y="83"/>
      <point x="119" y="167"/>
      <point x="119" y="235" type="curve"/>
      <point x="41" y="235" type="line"/>
      <point x="41" y="285" type="line"/>
      <point x="119" y="285" type="line"/>
      <point x="119" y="382" type="line"/>
      <point x="41" y="382" type="line"/>
      <point x="41" y="432" type="line"/>
      <point x="119" y="432" type="line"/>
      <point x="119" y="621"/>
      <point x="212" y="720"/>
    </contour>
  </outline>
</glyph>
<glyph name="ljecyr.ss08" format="2">
  <advance width="790"/>
  <outline>
    <component base="elcyr.ss08"/>
    <contour>
      <point x="368" y="305" type="line"/>
      <point x="368" y="215" type="line"/>
      <point x="546" y="215" type="line" smooth="yes"/>
      <point x="593" y="215"/>
      <point x="620" y="192"/>
      <point x="620" y="153" type="curve" smooth="yes"/>
      <point x="620" y="114"/>
      <point x="595" y="91"/>
      <point x="553" y="91" type="curve" smooth="yes"/>
      <point x="467" y="91" type="line"/>
      <point x="422" y="0" type="line"/>
      <point x="571" y="0" type="line" smooth="yes"/>
      <point x="694" y="0"/>
      <point x="740" y="64"/>
      <point x="740" y="154" type="curve" smooth="yes"/>
      <point x="740" y="244"/>
      <point x="690" y="305"/>
      <point x="559" y="305" type="curve" smooth="yes"/>
    </contour>
  </outline>
</glyph>
<glyph name="nine.ss10.osf" format="2">
  <advance width="667"/>
  <outline>
    <contour>
      <point x="177" y="326" type="curve" smooth="yes"/>
      <point x="177" y="412"/>
      <point x="231" y="469"/>
      <point x="328" y="469" type="curve" smooth="yes"/>
      <point x="424" y="469"/>
      <point x="482" y="414"/>
      <point x="482" y="327" type="curve" smooth="yes"/>
      <point x="482" y="243"/>
      <point x="427" y="187"/>
      <point x="328" y="187" type="curve" smooth="yes"/>
      <point x="234" y="187"/>
      <point x="177" y="238"/>
    </contour>
    <contour>
      <point x="315" y="-70" type="curve" smooth="yes"/>
      <point x="226" y="-70"/>
      <point x="168" y="-30"/>
      <point x="92" y="84" type="curve"/>
      <point x="53" y="-44" type="line"/>
      <point x="122" y="-128"/>
      <point x="211" y="-171"/>
      <point x="321" y="-171" type="curve" smooth="yes"/>
      <point x="509" y="-171"/>
      <point x="614" y="-47"/>
      <point x="614" y="198" type="curve" smooth="yes"/>
      <point x="614" y="439"/>
      <point x="512" y="569"/>
      <point x="323" y="569" type="curve" smooth="yes"/>
      <point x="152" y="569"/>
      <point x="57" y="462"/>
      <point x="57" y="325" type="curve" smooth="yes"/>
      <point x="57" y="178"/>
      <point x="166" y="93"/>
      <point x="313" y="93" type="curve" smooth="yes"/>
      <point x="413" y="93"/>
      <point x="487" y="133"/>
      <point x="518" y="201" type="curve"/>
      <point x="518" y="17"/>
      <point x="447" y="-70"/>
    </contour>
  </outline>
</glyph>
<glyph name="parenright.case" format="2">
  <advance width="384"/>
  <outline>
    <contour>
      <point x="25" y="814" type="line"/>
      <point x="122" y="780"/>
      <point x="211" y="589"/>
      <point x="211" y="350" type="curve" smooth="yes"/>
      <point x="211" y="109"/>
      <point x="121" y="-97"/>
      <point x="25" y="-132" type="curve"/>
      <point x="25" y="-155" type="line"/>
      <point x="214" y="-117"/>
      <point x="331" y="77"/>
      <point x="331" y="351" type="curve" smooth="yes"/>
      <point x="331" y="620"/>
      <point x="218" y="800"/>
      <point x="25" y="837" type="curve"/>
    </contour>
  </outline>
</glyph>
<glyph name="question.ss10" format="2">
  <advance width="551"/>
  <outline>
    <contour>
      <point x="174" y="47" type="curve" smooth="yes"/>
      <point x="174" y="11"/>
      <point x="203" y="-20"/>
      <point x="241" y="-20" type="curve" smooth="yes"/>
      <point x="280" y="-20"/>
      <point x="310" y="11"/>
      <point x="310" y="47" type="curve" smooth="yes"/>
      <point x="310" y="86"/>
      <point x="280" y="115"/>
      <point x="241" y="115" type="curve" smooth="yes"/>
      <point x="203" y="115"/>
      <point x="174" y="86"/>
    </contour>
    <contour>
      <point x="285" y="666" type="curve" smooth="yes"/>
      <point x="190" y="666"/>
      <point x="134" y="625"/>
      <point x="73" y="512" type="curve"/>
      <point x="34" y="640" type="line"/>
      <point x="92" y="722"/>
      <point x="180" y="767"/>
      <point x="285" y="767" type="curve" smooth="yes"/>
      <point x="426" y="767"/>
      <point x="521" y="690"/>
      <point x="521" y="567" type="curve" smooth="yes"/>
      <point x="521" y="452"/>
      <point x="405" y="364"/>
      <point x="301" y="332" type="curve"/>
      <point x="301" y="250" type="line"/>
      <point x="181" y="250" type="line"/>
      <point x="181" y="355" type="line"/>
      <point x="342" y="419"/>
      <point x="401" y="474"/>
      <point x="401" y="557" type="curve" smooth="yes"/>
      <point x="401" y="622"/>
      <point x="359" y="666"/>
    </contour>
  </outline>
</glyph>
<glyph name="schwa.ss10" format="2">
  <advance width="600"/>
  <anchor x="300" y="-20" name="bottom"/>
  <anchor x="300" y="520" name="top"/>
  <outline>
    <contour>
      <point x="417" y="209" type="curve"/>
      <point x="173" y="209" type="line"/>
      <point x="179" y="120"/>
      <point x="223" y="70"/>
      <point x="292" y="70" type="curve" smooth="yes"/>
      <point x="362" y="70"/>
      <point x="409" y="121"/>
    </contour>
    <contour>
      <point x="278" y="430" type="curve" smooth="yes"/>
      <point x="210" y="430"/>
      <point x="164" y="398"/>
      <point x="108" y="318" type="curve"/>
      <point x="77" y="426" type="line"/>
      <point x="121" y="485"/>
      <point x="197" y="520"/>
      <point x="287" y="520" type="curve" smooth="yes"/>
      <point x="445" y="520"/>
      <point x="541" y="412"/>
      <point x="541" y="246" type="curve" smooth="yes"/>
      <point x="541" y="83"/>
      <point x="449" y="-20"/>
      <point x="295" y="-20" type="curve" smooth="yes"/>
      <point x="141" y="-20"/>
      <point x="50" y="84"/>
      <point x="50" y="245" type="curve" smooth="yes"/>
      <point x="50" y="269"/>
      <point x="52" y="280"/>
      <point x="53" y="289" type="curve"/>
      <point x="418" y="289" type="line"/>
      <point x="410" y="377"/>
      <point x="366" y="430"/>
    </contour>
  </outline>
</glyph>
<glyph name="sigmafinal.ss10" format="2">
  <advance width="595"/>
  <anchor x="297" y="519" name="topgr"/>
  <outline>
    <contour>
      <point x="310" y="430" type="curve" smooth="yes"/>
      <point x="220" y="430"/>
      <point x="170" y="362"/>
      <point x="170" y="256" type="curve" smooth="yes"/>
      <point x="170" y="139"/>
      <point x="217.873" y="70"/>
      <point x="344.538" y="70" type="curve" smooth="yes"/>
      <point x="471.203" y="70"/>
      <point x="548" y="2"/>
      <point x="548" y="-92" type="curve" smooth="yes"/>
      <point x="548" y="-133"/>
      <point x="533" y="-170"/>
      <point x="507" y="-200" type="curve"/>
      <point x="390" y="-200" type="line"/>
      <point x="414" y="-167"/>
      <point x="428" y="-142"/>
      <point x="428" y="-107" type="curve" smooth="yes"/>
      <point x="428" y="-50"/>
      <point x="393.092" y="-20"/>
      <point x="308.317" y="-20" type="curve" smooth="yes"/>
      <point x="126.797" y="-20"/>
      <point x="50" y="118"/>
      <point x="50" y="253" type="curve" smooth="yes"/>
      <point x="50" y="411"/>
      <point x="155" y="520"/>
      <point x="312" y="520" type="curve" smooth="yes"/>
      <point x="401" y="520"/>
      <point x="473" y="485"/>
      <point x="517" y="426" type="curve"/>
      <point x="486" y="318" type="line"/>
      <point x="420" y="402"/>
      <point x="374" y="430"/>
    </contour>
  </outline>
</glyph>
<glyph name="two.ss12" format="2">
  <advance width="612"/>
  <outline>
    <contour>
      <point x="57" y="100" type="line"/>
      <point x="57" y="0" type="line"/>
      <point x="556" y="0" type="line"/>
      <point x="556" y="100" type="line"/>
    </contour>
    <contour>
      <point x="303" y="619" type="curve" smooth="yes"/>
      <point x="398" y="619"/>
      <point x="436" y="569.946"/>
      <point x="436" y="474.018" type="curve" smooth="yes"/>
      <point x="436" y="332.306"/>
      <point x="352" y="256"/>
      <point x="57" y="176" type="curve"/>
      <point x="57" y="74" type="line"/>
      <point x="410" y="143"/>
      <point x="556" y="271.691"/>
      <point x="556" y="479.495" type="curve" smooth="yes"/>
      <point x="556" y="637.722"/>
      <point x="471" y="720"/>
      <point x="325" y="720" type="curve" smooth="yes"/>
      <point x="221" y="720"/>
      <point x="142" y="680"/>
      <point x="69" y="595" type="curve"/>
      <point x="78" y="510" type="line"/>
      <point x="156" y="591"/>
      <point x="228" y="619"/>
    </contour>
  </outline>
</glyph>
<glyph name="two.ss12.osf" format="2">
  <advance width="612"/>
  <outline>
    <contour>
      <point x="57" y="100" type="line"/>
      <point x="57" y="0" type="line"/>
      <point x="556" y="0" type="line"/>
      <point x="556" y="100" type="line"/>
    </contour>
    <contour>
      <point x="290.43" y="470" type="curve" smooth="yes"/>
      <point x="380.123" y="470"/>
      <point x="416" y="432.04"/>
      <point x="416" y="357.806" type="curve" smooth="yes"/>
      <point x="416" y="248.142"/>
      <point x="336.433" y="189.093"/>
      <point x="57" y="136" type="curve"/>
      <point x="57" y="54" type="line"/>
      <point x="365.852" y="107.085"/>
      <point x="536" y="195.015"/>
      <point x="536" y="369.295" type="curve" smooth="yes"/>
      <point x="536" y="501.996"/>
      <point x="454.491" y="571"/>
      <point x="314.487" y="571" type="curve" smooth="yes"/>
      <point x="214.758" y="571"/>
      <point x="139.002" y="531"/>
      <point x="69" y="446" type="curve"/>
      <point x="78" y="361" type="line"/>
      <point x="151.642" y="442"/>
      <point x="219.62" y="470"/>
    </contour>
  </outline>
</glyph>
